<svg width="642" height="633" viewBox="0 0 642 633" fill="none" xmlns="http://www.w3.org/2000/svg">
<path d="M322.903 0.00683594C499.137 1.10616 641.657 142.171 641.657 316.025C641.657 490.561 498.018 632.051 320.829 632.051L318.754 632.044C184.903 631.209 70.5018 549.635 23.2168 434.278C22.6019 433.25 22.1541 432.131 21.8818 430.969C7.75461 395.345 0 356.577 0 316.025C0 141.489 143.64 0 320.829 0L322.903 0.00683594ZM581.161 454.336C556.008 465.775 530.3 475.477 504.205 483.44C476.483 530.614 436.164 571.539 383.507 600.51C469.07 582.364 540.731 527.835 581.161 454.336ZM166.066 491.565C199.073 538.641 246.794 577.357 308.889 600.206V510.726C260.875 509.833 212.949 503.444 166.066 491.565ZM470.819 492.633C425.157 503.863 378.554 509.894 331.889 510.732V599.032C391.988 576.221 438.404 538.432 470.819 492.633ZM60.6592 454.637C100.052 526.05 168.949 579.506 251.418 599.001C199.597 569.851 159.926 529.03 132.656 482.111C108.258 474.475 84.2122 465.316 60.6592 454.637ZM331.889 181.298C331.888 187.649 326.74 192.798 320.389 192.798C314.038 192.798 308.889 187.649 308.889 181.298V118.59C260.402 119.685 212.034 126.906 165.003 140.244C132.118 187.356 114.379 242.41 111.455 298.137C127.827 297.385 144.885 297.409 161.796 298.647C167.927 299.097 172.547 304.596 172.112 310.932C171.678 317.267 166.354 322.039 160.223 321.59C143.747 320.384 127.074 320.398 111.089 321.178C112.101 370.314 124.577 419.193 148.285 462.845C200.717 478.381 254.743 486.677 308.889 487.721V450.638C308.889 444.287 314.037 439.138 320.389 439.138C326.74 439.138 331.889 444.287 331.889 450.638V487.729C384.696 486.744 437.417 478.862 488.683 464.071C512.852 420.061 525.554 370.665 526.551 321.012C511.861 320.404 496.648 320.477 481.603 321.59C475.535 322.039 470.268 317.267 469.838 310.932C469.408 304.596 473.979 299.097 480.046 298.647C495.514 297.503 511.105 297.395 526.171 297.979C523.177 241.473 504.952 185.667 471.148 138.139C425.529 125.877 378.743 119.344 331.889 118.53V181.298ZM549.521 322.514C548.469 367.798 538.37 412.857 519.372 454.327C545.071 445.411 570.324 434.715 594.951 422.235L596.669 421.364C607.617 393.645 614.371 363.88 616.171 332.833C600.902 329.286 576.935 324.945 549.521 322.514ZM88.1221 322.829C62.5898 325.239 40.2754 329.21 25.4697 332.552C27.2514 363.817 34.0577 393.784 45.1113 421.676C68.7392 433.71 92.9534 444.104 117.596 452.856C99.0731 411.889 89.1997 367.472 88.1221 322.829ZM505.262 148.454C532.325 194.797 546.914 246.87 549.271 299.414C576.189 301.693 600.056 305.779 616.579 309.398C615.529 263.229 603.533 219.666 583.023 181.155L578.022 178.663C554.328 166.856 530.013 156.787 505.262 148.454ZM130.849 151.094C106.151 159.799 81.9178 170.243 58.334 182.426C58.1675 182.512 57.9997 182.593 57.8311 182.67C37.8507 220.73 26.1602 263.661 25.083 309.124C40.9895 305.73 63.25 301.981 88.3496 299.717C90.6208 248.066 104.711 196.859 130.849 151.094ZM247.574 33.9844C179.223 51.1041 120.465 91.6234 80.5117 146.287C103.504 136.139 126.991 127.509 150.826 120.398C175.63 86.7578 207.843 57.1546 247.574 33.9844ZM387.236 32.3555C427.361 55.2426 459.949 84.6317 485.112 118.12C510.549 125.332 535.618 134.265 560.141 144.921C518.872 89.1395 457.931 48.2965 387.236 32.3555ZM296.218 35.3057C252.7 53.7987 216.965 79.6949 188.894 110.396C228.386 101.398 268.599 96.4582 308.889 95.584V29.9199L296.218 35.3057ZM331.889 95.5273C370.548 96.1725 409.165 100.56 447.17 108.692C419.34 78.7374 384.128 53.4555 341.418 35.3057L331.889 31.2559V95.5273Z" fill="#2966EE"/>
<path d="M358.752 369.36C361.055 364.008 367.261 361.536 372.613 363.839C377.964 366.142 380.436 372.348 378.133 377.7C356.212 428.641 283.986 428.641 262.065 377.7C259.762 372.348 262.233 366.142 267.585 363.839C272.937 361.536 279.143 364.008 281.446 369.36C296.046 403.289 344.152 403.289 358.752 369.36Z" fill="#2966EE"/>
<path d="M255.341 205.463C285.411 205.844 309.671 230.338 309.671 260.499V300.874C309.671 331.272 285.028 355.915 254.63 355.915H242.837C212.676 355.915 188.181 331.656 187.8 301.585L187.795 300.874V260.499C187.795 230.338 212.055 205.844 242.125 205.463L242.837 205.458H254.63L255.341 205.463ZM242.837 224.723C223.078 224.723 207.06 240.74 207.06 260.499V300.874C207.06 320.633 223.078 336.65 242.837 336.65H254.63C261.112 336.65 267.192 334.926 272.436 331.911C257.028 331.551 244.647 318.95 244.647 303.455V254.382C244.648 241.651 254.968 231.33 267.699 231.33H275.351C269.504 227.169 262.353 224.723 254.63 224.723H242.837Z" fill="#2966EE"/>
<path d="M398.88 205.463C428.95 205.844 453.21 230.338 453.21 260.499V300.874C453.21 331.272 428.566 355.915 398.168 355.915H386.375C356.214 355.915 331.72 331.656 331.339 301.585L331.334 300.874V260.499C331.334 230.338 355.593 205.844 385.664 205.463L386.375 205.458H398.168L398.88 205.463ZM386.375 224.723C366.616 224.723 350.599 240.74 350.599 260.499V300.874C350.599 320.633 366.616 336.65 386.375 336.65H398.168C404.866 336.65 411.132 334.807 416.492 331.604C402.785 329.555 392.271 317.733 392.271 303.455V254.382C392.272 241.651 402.592 231.33 415.323 231.33H418.889C413.042 227.169 405.891 224.723 398.168 224.723H386.375Z" fill="#2966EE"/>
</svg>
