<svg width="373" height="296" viewBox="0 0 373 296" fill="none" xmlns="http://www.w3.org/2000/svg">
<path d="M239.752 229.857C242.981 222.351 251.684 218.885 259.19 222.115C266.695 225.345 270.161 234.048 266.932 241.553C236.189 312.993 134.899 312.993 104.157 241.553C100.927 234.048 104.393 225.345 111.899 222.115C119.404 218.885 128.107 222.351 131.337 229.857C151.813 277.439 219.276 277.439 239.752 229.857Z" fill="#2966EE"/>
<path d="M94.7266 0.00683594C136.898 0.5411 170.919 34.8926 170.919 77.1904V133.812C170.919 176.444 136.36 211.003 93.7285 211.003H77.1904C34.8923 211.003 0.539959 176.981 0.00585938 134.81L0 133.812V77.1904C0.000241765 34.8926 34.0212 0.540992 76.1924 0.00683594L77.1904 0H93.7285L94.7266 0.00683594ZM77.1904 27.0166C49.4803 27.0166 27.0168 49.4804 27.0166 77.1904V133.812C27.0167 161.523 49.4803 183.986 77.1904 183.986H93.7285C102.819 183.986 111.346 181.568 118.699 177.341C97.0916 176.835 79.7305 159.162 79.7305 137.433V68.6123C79.7305 50.7581 94.2044 36.2842 112.059 36.2842H122.788C114.588 30.4488 104.559 27.0166 93.7285 27.0166H77.1904Z" fill="#2966EE"/>
<path d="M296.028 0.00683594C338.199 0.541137 372.22 34.8927 372.221 77.1904V133.812C372.221 176.444 337.661 211.003 295.03 211.003H278.492C236.194 211.003 201.842 176.981 201.308 134.81L201.301 133.812V77.1904C201.301 34.8925 235.323 0.540955 277.494 0.00683594L278.492 0H295.03L296.028 0.00683594ZM278.492 27.0166C250.782 27.0166 228.319 49.4804 228.318 77.1904V133.812C228.318 161.523 250.782 183.986 278.492 183.986H295.03C304.423 183.986 313.212 181.402 320.729 176.91C301.504 174.036 286.761 157.457 286.761 137.433V68.6123C286.761 50.7582 301.234 36.2843 319.088 36.2842H324.09C315.89 30.4488 305.861 27.0166 295.03 27.0166H278.492Z" fill="#2966EE"/>
</svg>
